<?xml version="1.0" standalone="no"?>
<!DOCTYPE svg PUBLIC "-//W3C//DTD SVG 20010904//EN"
 "http://www.w3.org/TR/2001/REC-SVG-20010904/DTD/svg10.dtd">
<svg version="1.0" xmlns="http://www.w3.org/2000/svg"
 width="500.000000pt" height="500.000000pt" viewBox="0 0 500.000000 500.000000"
 preserveAspectRatio="xMidYMid meet">

<g transform="translate(0.000000,500.000000) scale(0.100000,-0.100000)"
fill="#000000" stroke="none">
<path d="M0 2500 l0 -2500 2500 0 2500 0 0 2500 0 2500 -2500 0 -2500 0 0
-2500z m2200 1218 c19 -10 209 -165 421 -345 212 -181 466 -396 565 -479 99
-84 194 -165 212 -182 l32 -30 0 -180 c0 -157 -2 -182 -17 -200 -10 -11 -197
-171 -416 -356 -219 -185 -471 -398 -559 -474 -88 -75 -177 -149 -197 -164
-58 -43 -112 -50 -379 -46 l-244 3 -24 30 c-24 30 -24 32 -24 268 0 249 5 282
46 319 11 9 129 48 264 87 135 40 277 81 315 92 92 27 206 60 335 98 58 17
166 48 240 70 74 21 164 47 200 57 65 17 114 43 55 29 -16 -3 -210 -33 -429
-66 l-399 -59 -284 0 -285 0 -29 29 -29 29 0 251 c0 250 0 250 24 278 l24 28
286 3 285 3 374 -55 c394 -59 450 -65 382 -40 -22 8 -325 98 -674 200 -349
102 -642 191 -651 197 -46 28 -50 51 -50 317 l0 252 30 29 30 30 267 -3 c231
-3 273 -5 303 -20z"/>
</g>
</svg>
