<svg width="515" height="125" viewBox="0 0 515 125" fill="none" xmlns="http://www.w3.org/2000/svg">
<path d="M135.823 95V29.144H146.191L176.239 70.424C176.623 70.808 177.039 71.352 177.487 72.056C177.999 72.76 178.479 73.464 178.927 74.168C179.375 74.872 179.695 75.448 179.887 75.896H180.367C180.367 74.936 180.367 74.008 180.367 73.112C180.367 72.216 180.367 71.32 180.367 70.424V29.144H190.735V95H180.751L150.319 53.24C149.807 52.472 149.167 51.512 148.399 50.36C147.631 49.144 147.055 48.216 146.671 47.576H146.191C146.191 48.472 146.191 49.4 146.191 50.36C146.191 51.256 146.191 52.216 146.191 53.24V95H135.823ZM225.907 96.152C220.723 96.152 216.371 95.224 212.851 93.368C209.395 91.448 206.771 88.536 204.979 84.632C203.187 80.728 202.291 75.768 202.291 69.752C202.291 63.672 203.187 58.712 204.979 54.872C206.771 50.968 209.427 48.088 212.947 46.232C216.467 44.312 220.851 43.352 226.099 43.352C230.899 43.352 234.899 44.28 238.099 46.136C241.363 47.928 243.827 50.68 245.491 54.392C247.155 58.104 247.987 62.776 247.987 68.408V72.248H212.563C212.691 75.832 213.235 78.84 214.195 81.272C215.155 83.64 216.595 85.4 218.515 86.552C220.499 87.64 222.995 88.184 226.003 88.184C227.859 88.184 229.523 87.96 230.995 87.512C232.467 87 233.715 86.296 234.739 85.4C235.763 84.44 236.563 83.32 237.139 82.04C237.715 80.696 238.003 79.192 238.003 77.528H247.795C247.795 80.536 247.283 83.192 246.259 85.496C245.235 87.8 243.731 89.752 241.747 91.352C239.827 92.888 237.523 94.072 234.835 94.904C232.147 95.736 229.171 96.152 225.907 96.152ZM212.755 64.952H237.523C237.523 62.456 237.235 60.376 236.659 58.712C236.147 56.984 235.379 55.576 234.355 54.488C233.331 53.4 232.115 52.632 230.707 52.184C229.299 51.672 227.699 51.416 225.907 51.416C223.219 51.416 220.915 51.896 218.995 52.856C217.139 53.816 215.699 55.32 214.675 57.368C213.651 59.352 213.011 61.88 212.755 64.952ZM252.48 95L270.528 69.08L253.536 44.504H265.632L276.768 61.4H277.344L288.576 44.504H300L282.912 68.792L300.96 95H288.96L276.672 76.472H276.192L263.904 95H252.48ZM321.149 96.152C318.269 96.152 315.997 95.608 314.333 94.52C312.733 93.368 311.581 91.928 310.877 90.2C310.237 88.408 309.917 86.52 309.917 84.536V52.76H303.581V44.504H310.109L311.933 30.392H319.901V44.504H329.021V52.76H319.901V83.384C319.901 84.856 320.221 85.976 320.861 86.744C321.501 87.512 322.557 87.896 324.029 87.896H329.021V94.616C328.381 94.872 327.581 95.096 326.621 95.288C325.725 95.544 324.797 95.736 323.837 95.864C322.877 96.056 321.981 96.152 321.149 96.152ZM369.023 96.152C362.239 96.152 356.351 94.904 351.359 92.408C346.431 89.912 342.623 86.136 339.935 81.08C337.311 76.024 335.999 69.688 335.999 62.072C335.999 54.392 337.311 48.056 339.935 43.064C342.623 38.008 346.431 34.232 351.359 31.736C356.351 29.24 362.239 27.992 369.023 27.992C375.935 27.992 381.855 29.24 386.783 31.736C391.711 34.232 395.487 38.008 398.111 43.064C400.799 48.056 402.143 54.392 402.143 62.072C402.143 69.688 400.799 76.024 398.111 81.08C395.487 86.136 391.711 89.912 386.783 92.408C381.855 94.904 375.935 96.152 369.023 96.152ZM369.023 87.032C372.543 87.032 375.647 86.552 378.335 85.592C381.087 84.632 383.391 83.16 385.247 81.176C387.167 79.192 388.607 76.696 389.567 73.688C390.591 70.68 391.103 67.192 391.103 63.224V61.112C391.103 57.016 390.591 53.464 389.567 50.456C388.607 47.448 387.167 44.952 385.247 42.968C383.391 40.984 381.087 39.512 378.335 38.552C375.647 37.592 372.543 37.112 369.023 37.112C365.567 37.112 362.463 37.592 359.711 38.552C357.023 39.512 354.719 40.984 352.799 42.968C350.943 44.952 349.535 47.448 348.575 50.456C347.615 53.464 347.135 57.016 347.135 61.112V63.224C347.135 67.192 347.615 70.68 348.575 73.688C349.535 76.696 350.943 79.192 352.799 81.176C354.719 83.16 357.023 84.632 359.711 85.592C362.463 86.552 365.567 87.032 369.023 87.032ZM413.198 95V44.504H421.454L422.318 51.704H422.99C424.206 49.848 425.646 48.312 427.31 47.096C428.974 45.88 430.798 44.952 432.782 44.312C434.83 43.672 437.07 43.352 439.502 43.352C442.702 43.352 445.518 43.928 447.95 45.08C450.382 46.168 452.27 47.96 453.614 50.456C455.022 52.952 455.726 56.312 455.726 60.536V95H445.742V62.072C445.742 60.152 445.486 58.552 444.974 57.272C444.526 55.992 443.854 54.968 442.958 54.2C442.062 53.432 441.006 52.888 439.79 52.568C438.574 52.248 437.23 52.088 435.758 52.088C433.454 52.088 431.342 52.664 429.422 53.816C427.566 54.904 426.062 56.44 424.91 58.424C423.758 60.408 423.182 62.744 423.182 65.432V95H413.198ZM489.157 96.152C483.973 96.152 479.621 95.224 476.101 93.368C472.645 91.448 470.021 88.536 468.229 84.632C466.437 80.728 465.541 75.768 465.541 69.752C465.541 63.672 466.437 58.712 468.229 54.872C470.021 50.968 472.677 48.088 476.197 46.232C479.717 44.312 484.101 43.352 489.349 43.352C494.149 43.352 498.149 44.28 501.349 46.136C504.613 47.928 507.077 50.68 508.741 54.392C510.405 58.104 511.237 62.776 511.237 68.408V72.248H475.813C475.941 75.832 476.485 78.84 477.445 81.272C478.405 83.64 479.845 85.4 481.765 86.552C483.749 87.64 486.245 88.184 489.253 88.184C491.109 88.184 492.773 87.96 494.245 87.512C495.717 87 496.965 86.296 497.989 85.4C499.013 84.44 499.813 83.32 500.389 82.04C500.965 80.696 501.253 79.192 501.253 77.528H511.045C511.045 80.536 510.533 83.192 509.509 85.496C508.485 87.8 506.981 89.752 504.997 91.352C503.077 92.888 500.773 94.072 498.085 94.904C495.397 95.736 492.421 96.152 489.157 96.152ZM476.005 64.952H500.773C500.773 62.456 500.485 60.376 499.909 58.712C499.397 56.984 498.629 55.576 497.605 54.488C496.581 53.4 495.365 52.632 493.957 52.184C492.549 51.672 490.949 51.416 489.157 51.416C486.469 51.416 484.165 51.896 482.245 52.856C480.389 53.816 478.949 55.32 477.925 57.368C476.901 59.352 476.261 61.88 476.005 64.952Z" fill="#1F2511"/>
<path d="M51.7071 78.5609C51.8546 78.5414 52.0021 78.5219 52.3635 78.5023C52.8189 78.3605 53.0604 78.2189 53.3019 78.0773C53.4277 78.0565 53.5535 78.0358 53.8719 78.0287C54.9518 77.7318 55.8391 77.4211 56.7264 77.1105C56.8735 77.0838 57.0205 77.0572 57.3772 77.0281C57.8268 76.8882 58.0667 76.7506 58.3066 76.613C58.5387 76.5757 58.7708 76.5384 59.2367 76.4888C59.7524 76.3318 60.0342 76.1871 60.3161 76.0423C60.4636 76.0246 60.6111 76.007 60.9709 75.9858C61.4236 75.8412 61.6641 75.7001 61.9045 75.5589C62.032 75.5437 62.1595 75.5285 62.4801 75.5307C63.5602 75.2282 64.4473 74.9083 65.3344 74.5884C65.4817 74.563 65.629 74.5376 65.9848 74.5108C66.4354 74.3775 66.6776 74.2457 66.9197 74.1138C67.149 74.071 67.3783 74.0282 67.8615 73.9633C70.2516 73.3059 72.3878 72.6705 74.524 72.0352C74.4763 71.8708 74.4286 71.7065 74.381 71.5421C71.9696 72.0105 69.5583 72.4789 67.147 72.9473C66.7792 72.9713 66.4114 72.9953 65.7688 73.0026C64.808 73.1542 64.122 73.3226 63.4361 73.4909C63.1961 73.5042 62.956 73.5176 62.4927 73.5043C61.5026 73.6507 60.7358 73.8236 59.969 73.9966C59.7099 74.0063 59.4508 74.016 58.9203 74.0184C58.018 74.1575 57.3869 74.3038 56.7559 74.4501C56.4998 74.4711 56.2437 74.4922 55.7317 74.4904C54.9005 74.6199 54.3251 74.7721 53.7497 74.9243C53.1781 74.9721 52.6064 75.02 51.7578 75.0629C50.9636 75.1963 50.4465 75.3344 49.9293 75.4725C49.5614 75.4935 49.1936 75.5144 48.5584 75.52C47.7119 75.659 47.1328 75.8132 46.5537 75.9675C46.3191 75.9831 46.0845 75.9988 45.6225 75.9906C44.513 76.1485 43.6311 76.3303 42.7492 76.5122C42.4913 76.5242 42.2334 76.5363 41.7095 76.5392C40.7503 76.6903 40.0569 76.8507 39.3636 77.0111C38.9046 77.0647 38.4456 77.1183 37.7971 77.1363C37.3619 77.2013 37.1162 77.302 36.8705 77.4026C36.2997 77.4542 35.7288 77.5057 34.8827 77.5574C34.0948 77.6938 33.5821 77.83 33.0694 77.9663C32.8075 77.98 32.5457 77.9937 31.9888 78.0012C26.9178 77.9927 22.1418 77.9741 17.366 77.9928C12.8922 78.0103 8.41866 78.0672 3.945 78.1068C3.79535 78.0733 3.6457 78.0397 3.29997 77.918C2.67146 77.6516 2.23903 77.4735 1.80659 77.2954C1.80659 77.2954 1.7099 77.1871 1.61326 77.0511C1.30389 76.7189 1.09115 76.5228 0.878418 76.3267C0.739461 76.0844 0.600508 75.842 0.421736 75.3926C0.256511 74.9011 0.131103 74.6166 0.00569303 74.3322C0.00697958 66.5654 0.00826616 58.7987 0.0724669 50.7693C0.211919 50.2083 0.288454 49.9101 0.364988 49.6119C0.50077 49.3654 0.636551 49.119 0.915915 48.7324C1.2329 48.3628 1.40629 48.1332 1.57969 47.9036C1.73923 47.8044 1.89878 47.7052 2.28462 47.5412C3.38022 47.3311 4.24802 47.0719 5.1191 47.0605C8.74389 47.013 12.3697 47.0539 15.9951 47.0366C21.2217 47.0116 26.4482 46.9642 31.6747 46.9264C32.046 46.9726 32.4173 47.0189 33.0398 47.1389C33.9361 47.2883 34.5813 47.364 35.2265 47.4397C35.7862 47.5016 36.3459 47.5636 37.1304 47.7256C37.8549 47.8639 38.3547 47.9022 38.8544 47.9405C39.1147 47.9858 39.375 48.0311 39.8701 48.1625C40.7578 48.3122 41.4108 48.3759 42.0637 48.4396C42.2154 48.4667 42.3672 48.4938 42.7443 48.5797C43.8531 48.7408 44.7367 48.8431 45.6202 48.9453C45.9543 48.9888 46.2883 49.0323 46.8387 49.1655C47.6671 49.3219 48.2794 49.3887 48.8916 49.4555C49.151 49.4923 49.4104 49.529 49.9148 49.6356C50.8043 49.7805 51.4488 49.8556 52.0932 49.9307C52.2476 49.9531 52.4019 49.9755 52.7878 50.0551C53.9187 50.2197 54.8181 50.327 55.7175 50.4344C56.0899 50.4892 56.4623 50.5441 57.0726 50.6867C57.8507 50.8234 58.391 50.8724 58.9313 50.9214C59.1902 50.9599 59.4491 50.9983 59.9394 51.1015C60.9414 51.2613 61.7118 51.3563 62.4823 51.4513C62.8208 51.4928 63.1593 51.5342 63.7175 51.6556C64.5445 51.7985 65.1519 51.8616 65.7593 51.9246C66.0176 51.9652 66.2759 52.0058 66.7809 52.1229C67.7724 52.3241 68.5137 52.52 69.2628 52.5559C70.2291 52.6022 71.2016 52.5204 72.16 52.4693C72.1486 52.4448 72.2363 52.4608 72.2363 52.4608C72.2363 52.4608 72.1649 52.4867 72.0371 52.5264C70.5495 52.0877 69.1898 51.6093 67.8301 51.1308C67.6033 51.0762 67.3764 51.0216 66.9556 50.8616C65.332 50.3713 63.9025 49.9863 62.4729 49.6013C62.3521 49.5675 62.2313 49.5338 61.9389 49.3965C60.9209 49.0652 60.0745 48.8374 59.2281 48.6096C59.0024 48.557 58.7768 48.5043 58.3589 48.3434C56.7313 47.8512 55.2959 47.4672 53.8605 47.0832C53.7425 47.0496 53.6244 47.0159 53.3352 46.8801C52.317 46.5479 51.47 46.318 50.623 46.0881C50.3996 46.0365 50.1761 45.9848 49.7793 45.8317C49.3325 45.6893 49.0591 45.6483 48.7857 45.6074C48.6376 45.5578 48.4894 45.5083 48.1426 45.3571C47.0453 45.0252 46.1467 44.7949 45.248 44.5646C45.1334 44.5305 45.0188 44.4964 44.7355 44.3581C43.7162 44.0281 42.8655 43.8024 42.0149 43.5767C29.535 39.9084 17.0494 36.2596 4.57958 32.5578C1.63702 31.6843 0.0288964 29.466 0.0184566 26.4507C-0.00632042 19.2937 -0.005294 12.1365 0.0164037 4.97947C0.0260169 1.80853 1.85553 0.0186017 5.06278 0.0114777C12.2372 -0.00445792 19.4117 -0.00185293 26.5861 0.00751015C29.8229 0.0117345 32.621 1.13715 35.0858 3.23859C52.0154 17.6726 68.9641 32.0842 85.9026 46.5078C87.9461 48.2478 89.9416 50.0446 92.0043 51.7614C93.4553 52.969 94.0171 54.476 93.998 56.3252C93.9556 60.4401 93.9509 64.5561 93.9994 68.6709C94.0229 70.6609 93.3222 72.1901 91.7865 73.4925C80.5438 83.0273 69.3326 92.5991 58.1178 102.167C53.5322 106.078 48.9622 110.009 44.1735 114.015C43.6588 114.428 43.3558 114.757 43.0527 115.085C42.7642 115.297 42.4757 115.509 42.0083 115.823C41.3919 116.354 40.9544 116.782 40.5169 117.211C40.1189 117.544 39.7209 117.877 39.133 118.304C38.5067 118.833 38.0704 119.268 37.634 119.703C37.3574 119.922 37.0808 120.141 36.6176 120.454C36.1206 120.869 35.8103 121.189 35.4999 121.509C34.8827 121.987 34.2655 122.464 33.4315 123.007C32.7621 123.365 32.3095 123.657 31.8568 123.949C31.7301 123.985 31.6033 124.02 31.2778 124.081C30.9029 124.226 30.7267 124.347 30.5506 124.467C30.4029 124.488 30.2553 124.509 29.8751 124.527C29.1809 124.683 28.7194 124.841 28.2578 124.999C20.2043 125.002 12.1508 125.004 3.86276 124.911C3.25649 124.724 2.88478 124.633 2.51307 124.542C2.08639 124.209 1.65972 123.876 1.1302 123.347C0.689828 122.505 0.352293 121.86 0.0147559 121.214C0.0187275 113.45 0.0227018 105.686 0.103564 97.6585C0.6269 96.3935 1.07335 95.392 1.5198 94.3905C1.60342 94.3188 1.68246 94.2424 1.91744 94.0777C2.26162 93.7787 2.44525 93.5632 2.62889 93.3477C3.11737 93.0904 3.60584 92.833 4.32174 92.5554C4.8977 92.3745 5.24624 92.2138 5.59478 92.0531C5.7183 92.0355 5.84183 92.0178 6.12908 92.0191C6.52956 91.9062 6.76633 91.7744 7.0031 91.6426C7.23124 91.5956 7.45937 91.5486 7.9436 91.4861C10.1988 90.8243 12.1979 90.1779 14.1971 89.5315C14.3229 89.5155 14.4487 89.4995 14.7379 89.5017C15.1333 89.3852 15.3655 89.2506 15.5977 89.116C15.8293 89.0734 16.0608 89.0309 16.5415 88.978C17.5961 88.6706 18.4016 88.3734 19.2071 88.0762C19.336 88.0571 19.4649 88.0381 19.7879 88.0295C20.9219 87.6993 21.8619 87.3586 22.8019 87.0178C22.9295 87.0014 23.0572 86.9849 23.3778 86.982C24.9832 86.5161 26.3957 86.0366 27.8082 85.5571C28.039 85.5169 28.2698 85.4766 28.7523 85.4121C30.2668 84.9499 31.5294 84.5119 32.792 84.0739C33.0301 84.0408 33.2682 84.0077 33.7315 83.9652C34.1343 83.8372 34.312 83.7186 34.4896 83.6C34.6363 83.5729 34.783 83.5458 35.1523 83.5205C35.7196 83.3613 36.0644 83.2003 36.4091 83.0393C36.6404 82.9977 36.8718 82.9561 37.3187 82.8941C37.7164 82.7667 37.8984 82.6596 38.0805 82.5525C38.2289 82.5303 38.3772 82.508 38.7645 82.4774C39.7018 82.1923 40.4001 81.9155 41.0984 81.6387C41.4319 81.5799 41.7654 81.521 42.3297 81.4475C42.7399 81.3165 42.9194 81.2001 43.0988 81.0838C43.2464 81.0626 43.3939 81.0413 43.7866 81.0181C46.5902 80.1978 49.1486 79.3793 51.7071 78.5609Z" fill="#B5E303"/>
</svg>
